<svg width="602" height="149" viewBox="0 0 602 149" fill="none" xmlns="http://www.w3.org/2000/svg">
<rect x="0.5" y="79.5" width="69" height="69" rx="3.5" stroke="white"/>
<rect x="76.5" y="79.5" width="69" height="69" rx="3.5" stroke="white"/>
<rect x="152.5" y="79.5" width="69" height="69" rx="3.5" stroke="white"/>
<rect x="228.5" y="79.5" width="69" height="69" rx="3.5" stroke="white"/>
<rect x="0.5" y="3.5" width="69" height="69" rx="3.5" stroke="white"/>
<rect x="76.5" y="3.5" width="69" height="69" rx="3.5" stroke="white"/>
<rect x="152.5" y="3.5" width="69" height="69" rx="3.5" stroke="white"/>
<rect x="228.5" y="3.5" width="69" height="69" rx="3.5" stroke="white"/>
<rect x="304.5" y="76.5" width="69" height="69" rx="3.5" stroke="white"/>
<rect x="380.5" y="76.5" width="69" height="69" rx="3.5" stroke="white"/>
<rect x="456.5" y="76.5" width="69" height="69" rx="3.5" stroke="white"/>
<rect x="532.5" y="76.5" width="69" height="69" rx="3.5" stroke="white"/>
<rect x="304.5" y="0.5" width="69" height="69" rx="3.5" stroke="white"/>
<rect x="380.5" y="0.5" width="69" height="69" rx="3.5" stroke="white"/>
<rect x="456.5" y="0.5" width="69" height="69" rx="3.5" stroke="white"/>
<rect x="532.5" y="0.5" width="69" height="69" rx="3.5" stroke="white"/>
</svg>
